# WaveFront *.obj file (generated by Cheetah3D)

mtllib model.mtl

g Extrude
v 0.300000 -0.000000 0.000000
v 0.300000 -0.000000 -0.060000
v 0.433013 -0.250000 -0.060000
v 0.433013 -0.250000 0.000000
v 0.300000 -0.000000 -0.120000
v 0.433013 -0.250000 -0.120000
v 0.300000 -0.000000 -0.180000
v 0.433013 -0.250000 -0.180000
v 0.300000 -0.000000 -0.240000
v 0.433013 -0.250000 -0.240000
v 0.300000 -0.000000 -0.300000
v 0.433013 -0.250000 -0.300000
v 0.150000 -0.259808 -0.060000
v 0.150000 -0.259808 0.000000
v 0.150000 -0.259808 -0.120000
v 0.150000 -0.259808 -0.180000
v 0.150000 -0.259808 -0.240000
v 0.150000 -0.259808 -0.300000
v -0.000000 -0.500000 -0.060000
v -0.000000 -0.500000 0.000000
v -0.000000 -0.500000 -0.120000
v -0.000000 -0.500000 -0.180000
v -0.000000 -0.500000 -0.240000
v -0.000000 -0.500000 -0.300000
v -0.150000 -0.259808 -0.060000
v -0.150000 -0.259808 0.000000
v -0.150000 -0.259808 -0.120000
v -0.150000 -0.259808 -0.180000
v -0.150000 -0.259808 -0.240000
v -0.150000 -0.259808 -0.300000
v -0.433013 -0.250000 -0.060000
v -0.433013 -0.250000 0.000000
v -0.433013 -0.250000 -0.120000
v -0.433013 -0.250000 -0.180000
v -0.433013 -0.250000 -0.240000
v -0.433013 -0.250000 -0.300000
v -0.300000 0.000000 -0.060000
v -0.300000 0.000000 0.000000
v -0.300000 0.000000 -0.120000
v -0.300000 0.000000 -0.180000
v -0.300000 0.000000 -0.240000
v -0.300000 0.000000 -0.300000
v -0.433013 0.250000 -0.060000
v -0.433013 0.250000 0.000000
v -0.433013 0.250000 -0.120000
v -0.433013 0.250000 -0.180000
v -0.433013 0.250000 -0.240000
v -0.433013 0.250000 -0.300000
v -0.150000 0.259808 -0.060000
v -0.150000 0.259808 0.000000
v -0.150000 0.259808 -0.120000
v -0.150000 0.259808 -0.180000
v -0.150000 0.259808 -0.240000
v -0.150000 0.259808 -0.300000
v 0.000000 0.500000 -0.060000
v 0.000000 0.500000 0.000000
v 0.000000 0.500000 -0.120000
v 0.000000 0.500000 -0.180000
v 0.000000 0.500000 -0.240000
v 0.000000 0.500000 -0.300000
v 0.150000 0.259808 -0.060000
v 0.150000 0.259808 0.000000
v 0.150000 0.259808 -0.120000
v 0.150000 0.259808 -0.180000
v 0.150000 0.259808 -0.240000
v 0.150000 0.259808 -0.300000
v 0.433013 0.250000 -0.060000
v 0.433013 0.250000 0.000000
v 0.433013 0.250000 -0.120000
v 0.433013 0.250000 -0.180000
v 0.433013 0.250000 -0.240000
v 0.433013 0.250000 -0.300000
v 0.150000 -0.259808 0.000000
v -0.000000 -0.500000 0.000000
v -0.150000 -0.259808 0.000000
v -0.150000 -0.259808 -0.300000
v -0.000000 -0.500000 -0.300000
v 0.150000 -0.259808 -0.300000
v -0.150000 0.259808 0.000000
v 0.000000 0.500000 0.000000
v 0.150000 0.259808 0.000000
v 0.150000 0.259808 -0.300000
v 0.000000 0.500000 -0.300000
v -0.150000 0.259808 -0.300000
v -0.300000 0.000000 0.000000
v -0.433013 0.250000 0.000000
v -0.433013 0.250000 -0.300000
v -0.300000 0.000000 -0.300000
v 0.300000 -0.000000 0.000000
v 0.433013 -0.250000 0.000000
v 0.433013 -0.250000 -0.300000
v 0.300000 -0.000000 -0.300000
v 0.433013 0.250000 0.000000
v 0.433013 0.250000 -0.300000
v -0.433013 -0.250000 0.000000
v -0.433013 -0.250000 -0.300000

vt 0.000000 1.000000
vt 0.200000 1.000000
vt 0.200000 0.056058
vt 0.000000 0.056058
vt 0.400000 1.000000
vt 0.400000 0.056058
vt 0.600000 1.000000
vt 0.600000 0.056058
vt 0.800000 1.000000
vt 0.800000 0.056058
vt 1.000000 1.000000
vt 1.000000 0.056058
vt 0.200000 -0.887884
vt 0.000000 -0.887884
vt 0.400000 -0.887884
vt 0.600000 -0.887884
vt 0.800000 -0.887884
vt 1.000000 -0.887884
vt 0.200000 -1.831826
vt 0.000000 -1.831826
vt 0.400000 -1.831826
vt 0.600000 -1.831826
vt 0.800000 -1.831826
vt 1.000000 -1.831826
vt 0.200000 -2.775768
vt 0.000000 -2.775768
vt 0.400000 -2.775768
vt 0.600000 -2.775768
vt 0.800000 -2.775768
vt 1.000000 -2.775768
vt 0.200000 -3.719710
vt 0.000000 -3.719710
vt 0.400000 -3.719710
vt 0.600000 -3.719710
vt 0.800000 -3.719710
vt 1.000000 -3.719710
vt 0.200000 -4.663652
vt 0.000000 -4.663652
vt 0.400000 -4.663652
vt 0.600000 -4.663652
vt 0.800000 -4.663652
vt 1.000000 -4.663652
vt 0.200000 -5.607594
vt 0.000000 -5.607594
vt 0.400000 -5.607594
vt 0.600000 -5.607594
vt 0.800000 -5.607594
vt 1.000000 -5.607594
vt 0.200000 -6.551536
vt 0.000000 -6.551536
vt 0.400000 -6.551536
vt 0.600000 -6.551536
vt 0.800000 -6.551536
vt 1.000000 -6.551536
vt 0.200000 -7.495478
vt 0.000000 -7.495478
vt 0.400000 -7.495478
vt 0.600000 -7.495478
vt 0.800000 -7.495478
vt 1.000000 -7.495478
vt 0.200000 -8.439420
vt 0.000000 -8.439420
vt 0.400000 -8.439420
vt 0.600000 -8.439420
vt 0.800000 -8.439420
vt 1.000000 -8.439420
vt 0.200000 -9.383362
vt 0.000000 -9.383362
vt 0.400000 -9.383362
vt 0.600000 -9.383362
vt 0.800000 -9.383362
vt 1.000000 -9.383362
vt 0.200000 -10.327304
vt 0.000000 -10.327304
vt 0.400000 -10.327304
vt 0.600000 -10.327304
vt 0.800000 -10.327304
vt 1.000000 -10.327304
vt 0.500000 0.133975
vt -0.000000 -0.666667
vt -0.500000 0.133975
vt -0.500000 1.866025
vt 0.000000 2.666667
vt 0.500000 1.866025
vt -1.000000 1.000000
vt -1.443376 1.833333
vt 1.443376 0.166667
vt 1.443376 1.833333
vt -1.443376 0.166667

vn 0.882823 0.469706 -0.000000
vn 0.034634 -0.999400 0.000000
vn 0.848189 -0.529694 0.000000
vn -0.848189 -0.529694 -0.000000
vn -0.034634 -0.999400 -0.000000
vn -0.882823 0.469706 -0.000000
vn -0.882823 -0.469706 -0.000000
vn -0.034634 0.999400 0.000000
vn -0.848189 0.529694 0.000000
vn 0.848189 0.529694 -0.000000
vn 0.034634 0.999400 -0.000000
vn 0.882823 -0.469706 -0.000000
vn 0.000000 0.000000 1.000000
vn 0.000000 0.000000 -1.000000

usemtl Material
f 4/4/1 3/3/1 2/2/1 1/1/1
f 3/3/1 6/6/1 5/5/1 2/2/1
f 6/6/1 8/8/1 7/7/1 5/5/1
f 8/8/1 10/10/1 9/9/1 7/7/1
f 10/10/1 12/12/1 11/11/1 9/9/1
f 14/14/2 13/13/2 3/3/2 4/4/2
f 13/13/2 15/15/2 6/6/2 3/3/2
f 15/15/2 16/16/2 8/8/2 6/6/2
f 16/16/2 17/17/2 10/10/2 8/8/2
f 17/17/2 18/18/2 12/12/2 10/10/2
f 20/20/3 19/19/3 13/13/3 14/14/3
f 19/19/3 21/21/3 15/15/3 13/13/3
f 21/21/3 22/22/3 16/16/3 15/15/3
f 22/22/3 23/23/3 17/17/3 16/16/3
f 23/23/3 24/24/3 18/18/3 17/17/3
f 26/26/4 25/25/4 19/19/4 20/20/4
f 25/25/4 27/27/4 21/21/4 19/19/4
f 27/27/4 28/28/4 22/22/4 21/21/4
f 28/28/4 29/29/4 23/23/4 22/22/4
f 29/29/4 30/30/4 24/24/4 23/23/4
f 32/32/5 31/31/5 25/25/5 26/26/5
f 31/31/5 33/33/5 27/27/5 25/25/5
f 33/33/5 34/34/5 28/28/5 27/27/5
f 34/34/5 35/35/5 29/29/5 28/28/5
f 35/35/5 36/36/5 30/30/5 29/29/5
f 38/38/6 37/37/6 31/31/6 32/32/6
f 37/37/6 39/39/6 33/33/6 31/31/6
f 39/39/6 40/40/6 34/34/6 33/33/6
f 40/40/6 41/41/6 35/35/6 34/34/6
f 41/41/6 42/42/6 36/36/6 35/35/6
f 44/44/7 43/43/7 37/37/7 38/38/7
f 43/43/7 45/45/7 39/39/7 37/37/7
f 45/45/7 46/46/7 40/40/7 39/39/7
f 46/46/7 47/47/7 41/41/7 40/40/7
f 47/47/7 48/48/7 42/42/7 41/41/7
f 50/50/8 49/49/8 43/43/8 44/44/8
f 49/49/8 51/51/8 45/45/8 43/43/8
f 51/51/8 52/52/8 46/46/8 45/45/8
f 52/52/8 53/53/8 47/47/8 46/46/8
f 53/53/8 54/54/8 48/48/8 47/47/8
f 56/56/9 55/55/9 49/49/9 50/50/9
f 55/55/9 57/57/9 51/51/9 49/49/9
f 57/57/9 58/58/9 52/52/9 51/51/9
f 58/58/9 59/59/9 53/53/9 52/52/9
f 59/59/9 60/60/9 54/54/9 53/53/9
f 62/62/10 61/61/10 55/55/10 56/56/10
f 61/61/10 63/63/10 57/57/10 55/55/10
f 63/63/10 64/64/10 58/58/10 57/57/10
f 64/64/10 65/65/10 59/59/10 58/58/10
f 65/65/10 66/66/10 60/60/10 59/59/10
f 68/68/11 67/67/11 61/61/11 62/62/11
f 67/67/11 69/69/11 63/63/11 61/61/11
f 69/69/11 70/70/11 64/64/11 63/63/11
f 70/70/11 71/71/11 65/65/11 64/64/11
f 71/71/11 72/72/11 66/66/11 65/65/11
f 1/74/12 2/73/12 67/67/12 68/68/12
f 2/73/12 5/75/12 69/69/12 67/67/12
f 5/75/12 7/76/12 70/70/12 69/69/12
f 7/76/12 9/77/12 71/71/12 70/70/12
f 9/77/12 11/78/12 72/72/12 71/71/12
f 75/81/13 74/80/13 73/79/13
f 78/79/14 77/80/14 76/81/14
f 81/84/13 80/83/13 79/82/13
f 84/82/14 83/83/14 82/84/14
f 79/82/13 86/86/13 85/85/13
f 88/85/14 87/86/14 84/82/14
f 73/79/13 90/87/13 89/11/13
f 92/11/14 91/87/14 78/79/14
f 89/11/13 93/88/13 81/84/13
f 82/84/14 94/88/14 92/11/14
f 85/85/13 95/89/13 75/81/13
f 76/81/14 96/89/14 88/85/14
f 89/11/13 81/84/13 79/82/13
f 84/82/14 82/84/14 92/11/14
f 89/11/13 79/82/13 85/85/13
f 88/85/14 84/82/14 92/11/14
f 73/79/13 89/11/13 85/85/13
f 88/85/14 92/11/14 78/79/14
f 73/79/13 85/85/13 75/81/13
f 76/81/14 88/85/14 78/79/14

usemtl default

